<?xml version="1.0" encoding="utf-8"?>
<!-- Generator: Adobe Illustrator 23.1.0, SVG Export Plug-In . SVG Version: 6.00 Build 0)  -->
<svg version="1.1" id="Слой_1" xmlns="http://www.w3.org/2000/svg" xmlns:xlink="http://www.w3.org/1999/xlink" x="0px" y="0px"
	 viewBox="0 0 425.2 141.73" style="enable-background:new 0 0 425.2 141.73;" xml:space="preserve">
<style type="text/css">
	.st0{fill:#4061AC;}
	.st1{fill-rule:evenodd;clip-rule:evenodd;fill:#4061AC;}
	.st2{fill:#FFFFFF;}
	.st3{fill:#E96032;}
	.st4{fill-rule:evenodd;clip-rule:evenodd;fill:#E96032;}
	.st5{fill-rule:evenodd;clip-rule:evenodd;fill:#F1AD76;}
	.st6{fill-rule:evenodd;clip-rule:evenodd;fill:#FFFFFF;}
</style>
<g>
	<path class="st2" d="M134.94,113.97c0.58,0,1.1,0.07,1.58,0.21l-0.74,4.56c-0.6-0.14-1.07-0.21-1.43-0.21
		c-0.93,0-1.64,0.32-2.13,0.97c-0.49,0.65-0.87,1.61-1.15,2.91v7.84h-4.71v-15.82h4.11l0.39,3.07c0.36-1.09,0.9-1.95,1.62-2.58
		C133.21,114.28,134.03,113.97,134.94,113.97"/>
	<path class="st2" d="M145.08,117.37c-0.95,0-1.67,0.4-2.15,1.21c-0.48,0.8-0.72,2.05-0.72,3.74c0,1.73,0.23,2.99,0.7,3.78
		c0.47,0.79,1.19,1.19,2.16,1.19c0.95,0,1.67-0.4,2.15-1.21c0.48-0.8,0.72-2.05,0.72-3.74c0-1.73-0.23-2.99-0.7-3.78
		C146.77,117.77,146.05,117.37,145.08,117.37 M145.08,113.91c2.42,0,4.32,0.74,5.69,2.22c1.37,1.48,2.06,3.55,2.06,6.21
		c0,1.69-0.31,3.16-0.94,4.43c-0.63,1.26-1.52,2.24-2.68,2.94c-1.16,0.7-2.54,1.04-4.13,1.04c-2.4,0-4.3-0.74-5.68-2.22
		c-1.38-1.48-2.07-3.55-2.07-6.21c0-1.69,0.31-3.16,0.94-4.43c0.63-1.26,1.52-2.24,2.68-2.94
		C142.11,114.26,143.49,113.91,145.08,113.91z"/>
	<path class="st2" d="M162.01,127.29c1.07,0,1.98-0.6,2.71-1.79v-6.82c-0.38-0.46-0.75-0.79-1.13-1.01
		c-0.38-0.22-0.81-0.33-1.31-0.33c-0.89,0-1.6,0.4-2.12,1.21c-0.52,0.8-0.77,2.06-0.77,3.77c0,1.85,0.22,3.14,0.67,3.87
		C160.5,126.92,161.15,127.29,162.01,127.29 M169.43,130.24h-4.17l-0.24-1.85c-1.11,1.57-2.61,2.35-4.5,2.35
		c-1.97,0-3.46-0.76-4.49-2.26c-1.02-1.51-1.53-3.58-1.53-6.2c0-1.63,0.26-3.07,0.79-4.34c0.53-1.26,1.29-2.25,2.28-2.97
		c0.99-0.72,2.16-1.07,3.49-1.07c0.72,0,1.39,0.13,2.01,0.39c0.63,0.26,1.18,0.63,1.65,1.1v-7.78l4.71,0.51V130.24z"/>
	<path class="st2" d="M175.66,106.07c0.81,0,1.48,0.25,2.01,0.76c0.53,0.51,0.79,1.15,0.79,1.92c0,0.77-0.26,1.42-0.79,1.92
		c-0.53,0.51-1.2,0.76-2.01,0.76c-0.81,0-1.48-0.25-2-0.76c-0.52-0.51-0.78-1.15-0.78-1.92c0-0.77,0.26-1.42,0.78-1.92
		C174.18,106.33,174.85,106.07,175.66,106.07 M173.34,130.24v-15.82h4.71v15.82H173.34z"/>
	<path class="st2" d="M191.22,113.91c1.37,0,2.44,0.42,3.22,1.25c0.77,0.83,1.16,2.01,1.16,3.52v11.56h-4.71v-10.76
		c0-0.79-0.12-1.35-0.37-1.65c-0.25-0.31-0.62-0.46-1.12-0.46c-0.95,0-1.87,0.69-2.74,2.06v10.82h-4.71v-15.82h4.11l0.33,1.88
		c0.68-0.79,1.41-1.39,2.19-1.79C189.37,114.11,190.25,113.91,191.22,113.91"/>
	<path class="st2" d="M208.63,113.91c1.37,0,2.44,0.42,3.22,1.25c0.77,0.83,1.16,2.01,1.16,3.52v11.56h-4.71v-10.76
		c0-0.79-0.12-1.35-0.37-1.65c-0.25-0.31-0.62-0.46-1.12-0.46c-0.95,0-1.87,0.69-2.74,2.06v10.82h-4.71v-15.82h4.11l0.33,1.88
		c0.68-0.79,1.41-1.39,2.19-1.79C206.78,114.11,207.65,113.91,208.63,113.91"/>
	<path class="st2" d="M219.18,111.71l-1.31-2.41l6.5-3.93l1.85,3.52L219.18,111.71z M225.2,130.27c-0.64,2.05-1.67,3.62-3.11,4.72
		c-1.44,1.1-3.37,1.72-5.8,1.86l-0.51-3.31c1.51-0.2,2.63-0.54,3.35-1.01c0.73-0.48,1.31-1.24,1.74-2.29h-1.61l-4.83-15.82h5.01
		l2.83,12.81l3.1-12.81h4.86L225.2,130.27z"/>
	<polygon class="st2" points="243.67,126.67 250.97,126.67 250.55,130.24 238.22,130.24 238.22,126.9 245.4,117.96 238.84,117.96 
		238.84,114.42 250.82,114.42 250.82,117.73 	"/>
	<path class="st2" d="M256.64,111.71l-1.31-2.41l6.5-3.93l1.85,3.52L256.64,111.71z M259.02,127.38c1.07,0,1.91-0.51,2.5-1.52v-2.8
		h-1.16c-1.07,0-1.87,0.19-2.4,0.57c-0.53,0.38-0.79,0.96-0.79,1.76c0,0.64,0.16,1.13,0.49,1.48
		C257.99,127.21,258.44,127.38,259.02,127.38z M266.14,125.65c0,0.6,0.08,1.03,0.25,1.31c0.17,0.28,0.44,0.49,0.82,0.63l-0.98,3.07
		c-0.97-0.08-1.77-0.29-2.38-0.64c-0.62-0.35-1.09-0.9-1.43-1.65c-1.03,1.59-2.62,2.38-4.77,2.38c-1.57,0-2.82-0.46-3.76-1.37
		c-0.93-0.91-1.4-2.11-1.4-3.58c0-1.73,0.64-3.05,1.91-3.96c1.27-0.91,3.11-1.37,5.51-1.37h1.61v-0.69c0-0.93-0.2-1.57-0.6-1.92
		c-0.4-0.35-1.09-0.52-2.09-0.52c-0.52,0-1.14,0.07-1.88,0.22c-0.74,0.15-1.49,0.35-2.26,0.61l-1.07-3.1
		c0.99-0.38,2.01-0.67,3.05-0.86c1.04-0.2,2.01-0.3,2.91-0.3c2.26,0,3.92,0.47,4.98,1.4c1.05,0.93,1.58,2.33,1.58,4.2V125.65z"/>
	<path class="st2" d="M277.32,127.32c1.83,0,2.74-1.66,2.74-4.98c0-1.87-0.22-3.16-0.66-3.89c-0.44-0.73-1.06-1.09-1.88-1.09
		c-1.07,0-1.98,0.62-2.71,1.85v6.59c0.3,0.48,0.67,0.85,1.1,1.12C276.36,127.19,276.82,127.32,277.32,127.32 M278.99,113.91
		c1.93,0,3.4,0.74,4.43,2.21c1.02,1.47,1.53,3.55,1.53,6.23c0,1.63-0.25,3.08-0.76,4.35c-0.51,1.27-1.23,2.26-2.18,2.98
		c-0.94,0.72-2.06,1.07-3.35,1.07c-0.85,0-1.63-0.18-2.34-0.54c-0.71-0.36-1.31-0.85-1.8-1.49l-0.24,1.52h-4.17v-22.11l4.71-0.51
		v8.4c0.48-0.66,1.09-1.17,1.83-1.55C277.4,114.1,278.18,113.91,278.99,113.91z"/>
	<path class="st2" d="M293.57,127.38c1.07,0,1.91-0.51,2.5-1.52v-2.8h-1.16c-1.07,0-1.87,0.19-2.4,0.57
		c-0.53,0.38-0.79,0.96-0.79,1.76c0,0.64,0.16,1.13,0.49,1.48C292.54,127.21,292.99,127.38,293.57,127.38 M300.69,125.65
		c0,0.6,0.08,1.03,0.25,1.31c0.17,0.28,0.44,0.49,0.82,0.63l-0.98,3.07c-0.97-0.08-1.77-0.29-2.38-0.64
		c-0.62-0.35-1.09-0.9-1.43-1.65c-1.03,1.59-2.62,2.38-4.77,2.38c-1.57,0-2.82-0.46-3.76-1.37c-0.93-0.91-1.4-2.11-1.4-3.58
		c0-1.73,0.64-3.05,1.91-3.96c1.27-0.91,3.11-1.37,5.51-1.37h1.61v-0.69c0-0.93-0.2-1.57-0.6-1.92c-0.4-0.35-1.09-0.52-2.09-0.52
		c-0.52,0-1.14,0.07-1.88,0.22c-0.74,0.15-1.49,0.35-2.26,0.61l-1.07-3.1c0.99-0.38,2.01-0.67,3.05-0.86c1.04-0.2,2.01-0.3,2.91-0.3
		c2.26,0,3.92,0.47,4.98,1.4c1.05,0.93,1.58,2.33,1.58,4.2V125.65z"/>
	<polygon class="st2" points="307.25,130.24 302.15,114.42 307.28,114.42 310.08,126.67 313,114.42 317.8,114.42 312.82,130.24 	"/>
	<path class="st2" d="M328.95,113.91c1.37,0,2.44,0.42,3.22,1.25c0.77,0.83,1.16,2.01,1.16,3.52v11.56h-4.71v-10.76
		c0-0.79-0.12-1.35-0.37-1.65c-0.25-0.31-0.62-0.46-1.12-0.46c-0.95,0-1.87,0.69-2.74,2.06v10.82h-4.71v-15.82h4.11l0.33,1.88
		c0.68-0.79,1.41-1.39,2.19-1.79C327.09,114.11,327.97,113.91,328.95,113.91"/>
	<path class="st2" d="M336.28,111.71l-1.31-2.41l6.5-3.93l1.85,3.52L336.28,111.71z M337.09,130.24v-15.82h4.71v15.82H337.09z"/>
	<path class="st2" d="M360.38,127.29c1.89,0,2.83-1.65,2.83-4.95c0-1.87-0.21-3.16-0.64-3.89c-0.43-0.73-1.08-1.09-1.95-1.09
		c-0.52,0-1,0.16-1.45,0.48c-0.45,0.32-0.85,0.77-1.21,1.37v6.68C358.6,126.82,359.41,127.29,360.38,127.29 M362.11,113.91
		c2.03,0,3.53,0.73,4.51,2.19c0.98,1.46,1.48,3.52,1.48,6.18c0,1.63-0.25,3.08-0.76,4.37c-0.51,1.28-1.24,2.28-2.19,3.01
		c-0.95,0.72-2.07,1.09-3.34,1.09c-1.59,0-2.87-0.55-3.84-1.64v7.24l-4.71,0.51v-22.44h4.14l0.24,1.76c0.62-0.77,1.32-1.35,2.1-1.71
		C360.53,114.09,361.32,113.91,362.11,113.91z"/>
	<path class="st2" d="M376.72,127.38c1.07,0,1.91-0.51,2.5-1.52v-2.8h-1.16c-1.07,0-1.87,0.19-2.4,0.57
		c-0.53,0.38-0.79,0.96-0.79,1.76c0,0.64,0.16,1.13,0.49,1.48C375.69,127.21,376.14,127.38,376.72,127.38 M383.84,125.65
		c0,0.6,0.08,1.03,0.25,1.31c0.17,0.28,0.44,0.49,0.82,0.63l-0.98,3.07c-0.97-0.08-1.77-0.29-2.38-0.64
		c-0.62-0.35-1.09-0.9-1.43-1.65c-1.03,1.59-2.62,2.38-4.77,2.38c-1.57,0-2.82-0.46-3.76-1.37c-0.93-0.91-1.4-2.11-1.4-3.58
		c0-1.73,0.64-3.05,1.91-3.96c1.27-0.91,3.11-1.37,5.51-1.37h1.61v-0.69c0-0.93-0.2-1.57-0.6-1.92c-0.4-0.35-1.09-0.52-2.09-0.52
		c-0.52,0-1.14,0.07-1.88,0.22c-0.74,0.15-1.49,0.35-2.26,0.61l-1.07-3.1c0.99-0.38,2.01-0.67,3.05-0.86c1.04-0.2,2.01-0.3,2.91-0.3
		c2.26,0,3.92,0.47,4.98,1.4c1.05,0.93,1.58,2.33,1.58,4.2V125.65z"/>
	<path class="st2" d="M396.39,113.97c0.58,0,1.1,0.07,1.58,0.21l-0.74,4.56c-0.6-0.14-1.07-0.21-1.43-0.21
		c-0.93,0-1.64,0.32-2.13,0.97c-0.49,0.65-0.87,1.61-1.15,2.91v7.84h-4.71v-15.82h4.11l0.39,3.07c0.36-1.09,0.9-1.95,1.62-2.58
		C394.66,114.28,395.47,113.97,396.39,113.97"/>
	<path class="st2" d="M414.84,130.24h-5.3l-4.71-8.64l4.83-7.18h4.8l-4.8,6.94L414.84,130.24z M399.97,130.24v-22.11l4.71-0.51
		v22.62H399.97z"/>
	<path class="st2" d="M170.07,93.93c-0.85-0.08-1.49-0.17-1.91-0.26l-0.83-0.25l-0.83-0.26c-0.64-0.3-1.15-0.57-1.53-0.83
		l-1.08-0.64l-0.32-0.26l-0.26-0.19l-0.51-0.32c-1.91-1.49-3.45-3.47-4.6-5.93c-0.43-0.85-0.7-1.91-0.83-3.19l-0.19-2.17l-0.26-2.17
		l-0.13-1.53l-0.19-1.53c-0.09-1.74-0.09-3.49,0-5.23c0-0.13,0.04-1.25,0.13-3.38l0.25-2.55c0.04-0.34,0.11-0.83,0.19-1.47
		l0.06-1.47l0.06-0.45l0.06-0.45c0.04-0.47,0.08-0.89,0.13-1.28c0.08-0.98,0.15-1.68,0.19-2.11l0.06-0.83l0.13-0.83
		c0.13-0.85,0.59-1.21,1.4-1.08c0.47,0.04,1.23,0,2.3-0.13l1.47-0.13h1.02l0.96-0.06c0.64,0,1.34-0.04,2.11-0.13
		c0.59,0,0.91,0.28,0.96,0.83v0.45l-0.06,0.51c-0.17,1.96-0.3,3.94-0.38,5.93c-0.09,1.11-0.13,2.08-0.13,2.94l-0.06,1.47v1.47
		c-0.04,0.64-0.06,2.04-0.06,4.21v2.74c0,0.81,0.04,1.72,0.13,2.74l0.06,0.83v0.77c0.08,0.76,0.17,1.32,0.26,1.66
		c0.21,0.85,0.64,1.51,1.28,1.98c0.94,0.72,1.85,1.21,2.74,1.47c1.49,0.51,2.72,0.15,3.7-1.08c0.81-0.85,1.42-1.93,1.85-3.26
		c0.68-1.91,1.11-3.96,1.28-6.13c0.04-0.38,0.11-1.04,0.19-1.98l0.06-1.02l0.13-1.08v-0.7L179,66.94c0.04-0.68,0.07-2.21,0.07-4.6
		l-0.26-6.25v-1.21l-0.06-1.15c0.04-0.55,0.34-0.89,0.89-1.02c0.25-0.08,0.57-0.15,0.96-0.19l0.32-0.06h0.26
		c0.17,0,0.3-0.02,0.38-0.06l1.92-0.38l1.91-0.38c0.68-0.09,1.28-0.13,1.79-0.13l0.83,0.06h0.89c0.47-0.09,0.76,0.17,0.89,0.77
		l0.06,0.13v0.19c-0.09,2.38-0.13,3.72-0.13,4.02c-0.04,0.21-0.06,0.72-0.06,1.53l-0.06,3.32c-0.04,1.19-0.11,2.3-0.19,3.32
		l-0.51,7.15c-0.26,3.23-0.72,6.21-1.4,8.93c-0.26,0.94-0.55,1.77-0.89,2.49c-0.81,1.79-1.49,3.17-2.04,4.15
		c-0.55,1.19-1.19,2.1-1.91,2.74l-0.96,0.83l-0.96,0.7c-0.64,0.51-1.36,0.92-2.17,1.21c-1.4,0.55-2.83,0.85-4.28,0.89H170.07z
		 M222.65,66.11c0.08,1.7-0.24,3.74-0.96,6.13c-0.3,1.11-0.85,2.06-1.66,2.87l-2.36,2.74l-0.7,0.77l-0.64,0.76
		c-0.47,0.55-0.85,0.98-1.15,1.28c-0.34,0.34-0.72,0.64-1.15,0.89c-2.26,1.19-4.51,1.98-6.76,2.36c-0.55,0.13-0.85,0.47-0.89,1.02
		v8.81c0,0.6-0.3,0.89-0.89,0.89c-0.64-0.04-1.42,0.02-2.36,0.19l-1.15,0.25l-1.15,0.19l-1.53,0.06c-0.64,0.09-1.13,0.15-1.47,0.19
		l-0.38,0.06h-0.38c-0.21,0.04-0.36,0.06-0.45,0.06c-0.68,0.04-1.13-0.28-1.34-0.96c-0.04-0.21-0.06-0.6-0.06-1.15
		c0-1.4,0.02-2.32,0.06-2.74v-0.19l-0.06-0.25c-0.04-0.17-0.04-0.32,0-0.45l0.06-1.66v-7.53c-0.09-1.53-0.09-2.79,0-3.77
		c0-2.04,0.06-4.08,0.19-6.13c0.04-2.04,0.17-4.13,0.38-6.25l0.26-3.38l0.19-3.32c0.09-0.55,0.15-1.28,0.19-2.17l0.06-0.7v-0.57
		c0-0.38,0.02-0.66,0.06-0.83c0.08-0.89,0.51-1.45,1.28-1.66l0.38-0.06l0.38-0.06c0.34-0.04,0.66-0.08,0.96-0.13l0.77-0.13
		l0.89-0.13c1.79-0.04,3.36-0.15,4.72-0.32h0.32l0.38,0.06l2.62,0.38c1.11,0.21,1.96,0.41,2.55,0.57l0.77,0.19l0.83,0.19
		c0.3,0.09,0.59,0.19,0.89,0.32l0.32,0.19l0.32,0.13c1.23,0.64,2.36,1.4,3.38,2.3c0.51,0.51,0.83,0.87,0.96,1.09
		c1.7,2.21,2.77,4.7,3.19,7.47c0.08,0.43,0.13,0.77,0.13,1.02V66.11z M205.81,67.19v1.79l0.26,3.64c0.08,0.68,0.21,1.13,0.38,1.34
		c0.21,0.21,0.7,0.28,1.47,0.19c1.62-0.21,2.96-0.98,4.02-2.3c0.68-0.81,1.15-1.72,1.4-2.74c0.25-1.57-0.02-3.28-0.83-5.11
		c-0.38-0.85-0.96-1.49-1.72-1.91c-1.15-0.64-2.66-0.96-4.53-0.96c-0.47,0-0.72,0.28-0.77,0.83l0.06,0.76v0.77
		c0.09,0.38,0.15,0.98,0.19,1.79v0.96l0.13,0.89L205.81,67.19z M226.93,89.34l0.19-7.78c0-1.57,0.08-2.96,0.25-4.15v-1.34
		c0-0.34,0.04-1.91,0.13-4.72V70.7c0-0.25,0.02-0.51,0.06-0.77l0.13-1.34l0.13-2.81l0.06-1.08v-1.08c0.09-0.85,0.15-1.55,0.19-2.11
		v-0.89l0.06-0.89c0-0.6,0.04-1.19,0.13-1.79l0.19-3.38l0.13-0.51c0.17-0.81,0.64-1.21,1.4-1.21c0.68-0.08,1.3-0.13,1.85-0.13h1.91
		c0.72,0,1.47,0.06,2.23,0.19h0.83l1.4,0.06l1.34,0.06l1.21-0.06c0.51-0.04,0.92-0.04,1.21,0h1.85l1.79,0.06
		c0.51,0.09,0.81,0.36,0.89,0.83v0.25l0.06,3.26v3.32c0,0.77-0.36,1.21-1.08,1.34c-1.4,0.21-2.57,0.26-3.51,0.13
		c-0.81-0.04-1.96,0.11-3.44,0.45c-0.43,0.13-0.64,0.43-0.64,0.89l0.06,0.83v0.89l0.19,1.91l0.13,0.45
		c0.13,0.64,0.49,0.89,1.09,0.77c1.02-0.21,2.23-0.19,3.64,0.06h0.51l0.51,0.06c0.26,0,0.6,0.04,1.02,0.13
		c0.64,0.13,1,0.55,1.09,1.28l0.19,2.3l0.13,2.23v0.89c0,0.64-0.3,1-0.89,1.08l-0.57,0.06l-0.64,0.13l-1.21,0.06
		c-0.38,0.04-0.93,0.11-1.66,0.19l-1.66,0.06c-0.85,0-1.4,0.02-1.66,0.06c-0.77,0.04-1.15,0.47-1.15,1.28l0.25,4.02
		c0,0.43,0.02,0.66,0.06,0.7c0.08,0.64,0.4,0.96,0.96,0.96c1.96,0.09,3.06,0.13,3.32,0.13l2.93,0.13c0.85,0,1.3,0.45,1.34,1.34v0.06
		l0.13,6.83v0.38c0,0.85-0.41,1.28-1.21,1.28l-2.68-0.07c-0.85,0-1.75-0.04-2.68-0.13l-5.94-0.57h-1.4l-3.89-0.13
		c-0.72-0.08-1.11-0.42-1.15-1.02l-0.19-2.81H226.93z M262.92,88.19c-0.04,1.83-0.15,3.32-0.32,4.47l-0.51,4.02
		c0,0.04-0.02,0.15-0.06,0.32v0.19l-0.06,0.32c-0.17,0.51-0.53,0.77-1.08,0.77l-2.68-0.19l-1.21-0.06l-1.15-0.06
		c-1.19-0.09-1.96-0.11-2.3-0.06c-0.89,0-1.3-0.43-1.21-1.28c0-0.47,0.04-3.13,0.13-7.98v-0.77c0-0.34,0.02-0.66,0.06-0.96v-1.72
		l0.26-4.09v-1.79c0.08-2.13,0.13-3.34,0.13-3.64c0.04-1.83,0.17-3.64,0.38-5.42l0.7-7.59l0.07-0.51l0.06-0.57
		c0.04-0.47,0.08-0.94,0.13-1.4c0.08-1.11,0.15-1.94,0.19-2.49l0.25-2.1l0.13-0.45l0.06-0.13l0.06-0.13
		c0.17-0.42,0.51-0.64,1.02-0.64c0.04,0.04,0.23,0.06,0.57,0.06c0.77,0.13,1.94,0.06,3.51-0.19c3.4-0.38,6.08-0.51,8.04-0.38
		l0.38,0.06l0.45,0.06c0.38,0.04,0.72,0.09,1.02,0.13l1.79,0.38l0.32,0.06l0.26,0.06c2.04,0.38,3.79,1.3,5.23,2.74
		c2.04,2,3.34,3.81,3.89,5.42c0.17,0.38,0.32,0.92,0.45,1.6l0.13,0.83l0.19,0.77c0.13,0.68,0.19,1.36,0.19,2.04
		c0,0.89-0.09,1.62-0.26,2.17c-0.13,1.28-0.45,2.49-0.96,3.64c-0.64,1.4-1.59,2.68-2.87,3.83c-0.26,0.26-0.49,0.45-0.7,0.57
		l-0.76,0.58l-0.51,0.38c-0.38,0.38-0.4,0.77-0.06,1.15l1.4,1.85l1.34,1.85l2.11,2.94c1.45,2,2.53,3.7,3.25,5.11l0.13,0.26
		l0.13,0.32c0.21,0.6,0.04,0.96-0.51,1.08c-0.26,0.09-0.51,0.13-0.77,0.13l-0.45,0.06h-0.38l-1.66,0.13l-1.59,0.06
		c-1.45,0.13-2.53,0.28-3.26,0.45c-0.55,0.13-1.06-0.06-1.53-0.57c-2.17-2.38-3.49-3.87-3.96-4.47l-4.28-5.04l-1.08-1.21
		c-0.38-0.47-0.75-0.85-1.09-1.15l-0.19-0.19l-0.13-0.06l-0.13-0.06c-0.26,0.26-0.41,0.64-0.45,1.15
		C263,84.23,262.92,86.02,262.92,88.19z M263.75,73.96c0,0.68,0.32,0.94,0.96,0.77l1.6-0.45l1.59-0.51
		c1.32-0.42,2.36-1.36,3.13-2.81c0.64-1.23,0.89-2.45,0.77-3.64c-0.13-1.36-0.68-2.4-1.66-3.13c-0.89-0.6-1.85-0.87-2.87-0.83
		c-0.94,0.04-1.77,0.15-2.49,0.32c-0.77,0.17-1.15,0.64-1.15,1.4c0.08,3.74,0.13,5.87,0.13,6.38V73.96z M304.02,94.12
		c-0.77-0.04-2.21,0.04-4.34,0.25h-2.3l-0.64-0.06h-5.81c-0.38,0-0.6-0.02-0.64-0.06c-0.47-0.09-0.74-0.32-0.83-0.7l-0.13-0.89
		v-4.72c0-2.59,0.08-4.76,0.25-6.51c0-0.17,0.04-1.23,0.13-3.19l0.06-2.55c0.08-1.11,0.15-1.96,0.19-2.55l0.19-2.04l0.19-1.98
		c0.13-1.62,0.26-2.96,0.38-4.02l0.45-3.89l0.19-1.98l0.26-2.04c0.08-0.64,0.21-1.23,0.38-1.79c0.21-0.64,0.68-0.96,1.4-0.96h2.49
		l2.94,0.26h0.19c0.98,0.21,1.38,0.85,1.21,1.91l-0.13,0.89L300,58.32c-0.04,0.64-0.11,1.21-0.19,1.72l-0.06,1.85v1.85
		c-0.09,1.96-0.13,3-0.13,3.13l-0.19,4.34l-0.19,3.38c-0.04,0.25-0.06,0.85-0.06,1.79v5.74c0,0.47,0.02,0.75,0.06,0.83
		c0.08,0.6,0.42,0.83,1.02,0.7c0.55-0.17,1.17-0.3,1.85-0.38c0.6-0.09,1.06-0.13,1.4-0.13h1.4c0.21-0.04,0.66-0.06,1.34-0.06
		c2.21,0,3.64,0.02,4.28,0.06c0.55,0.04,0.87,0.38,0.96,1.02v1.72l0.06,1.91v1.91c0,0.25-0.04,1.06-0.13,2.42
		c-0.04,0.89-0.53,1.43-1.47,1.59c-0.94,0.17-1.87,0.3-2.81,0.38c-0.38,0.04-0.85,0.04-1.4,0H304.02z M326.93,53.85l2.42-0.25
		l2.36-0.19l0.26-0.06h0.25c1.11,0.04,2.45,0.19,4.02,0.45c0.3,0.09,0.64,0.15,1.02,0.19c0.51,0.09,0.85,0.15,1.02,0.19
		c0.77,0.17,1.21,0.68,1.34,1.53c0.17,0.68,0.36,1.66,0.57,2.94l0.45,2.94l0.64,3.89l0.57,3.83l0.32,2.74l0.32,2.74
		c0.04,0.43,0.1,1.15,0.19,2.17v1.15l0.13,1.08c0.26,2.77,0.41,5.11,0.45,7.02c0.04,0.55,0.06,1,0.06,1.34
		c0.04,0.55,0.04,1.08,0,1.59l-0.13,1.53l-0.06,1.47c0,0.68-0.36,1.02-1.09,1.02c-1.19,0.04-2.4-0.02-3.64-0.19l-2.87-0.51
		l-0.45-0.13c-0.64-0.21-0.96-0.64-0.96-1.28l-0.13-3.13l-0.19-2.68l-0.26-2.68v-0.89c-0.04-0.81-0.47-1.21-1.27-1.21
		c-0.98,0-1.62,0.02-1.91,0.06c-0.3,0.04-0.85,0.11-1.66,0.19l-0.83,0.06l-0.83,0.13c-0.47,0.04-0.81,0.36-1.02,0.96l-0.51,3.06
		l-0.07,0.38l-0.06,0.45c-0.04,0.38-0.09,0.76-0.13,1.15l-0.32,1.98c-0.13,0.68-0.23,1.34-0.32,1.98c-0.13,0.85-0.26,1.75-0.38,2.68
		c-0.21,0.6-0.64,0.98-1.27,1.15l-3.06,0.57h-0.19l-0.26,0.06c-2.13,0.08-3.28,0.13-3.45,0.13c-0.68,0-1-0.34-0.96-1.02
		c0.09-0.81,0.21-1.68,0.38-2.62l0.57-3.19l0.83-5.11l0.7-4.21c0.77-4.17,1.23-6.68,1.4-7.53l0.83-4.6c0.34-1.79,0.66-3.3,0.96-4.53
		l0.83-3.51l0.32-1.79l0.32-1.79v-0.25c0.13-0.72,0.6-1.17,1.4-1.34l0.83-0.13l0.83-0.06l0.51-0.06h0.51c0.3,0,0.51-0.02,0.64-0.06
		V53.85z M333.12,70.64c0-0.13-0.04-0.83-0.13-2.11l-0.51-5.49l-0.19-1.53c-0.13-0.47-0.38-0.72-0.77-0.77l-0.45-0.06h-0.45
		c-0.55-0.04-0.94,0-1.15,0.13c-0.17,0.17-0.3,0.55-0.38,1.15l-1.02,5.55l-0.19,1.08l-0.19,1.02l-0.32,1.98
		c-0.17,1.06,0.3,1.51,1.4,1.34c0.38-0.08,0.81-0.15,1.28-0.19l0.38-0.06h0.32c0.25,0,0.42-0.02,0.51-0.06l1.02-0.13
		c0.55-0.04,0.83-0.34,0.83-0.89V70.64z M359.79,73.7l0.06,0.83v1.4l-0.06,0.64l-0.19,3.96l-0.25,1.98
		c-0.04,0.43-0.11,1.13-0.19,2.1l-0.06,1.09l-0.13,1.08c-0.13,0.81-0.19,1.79-0.19,2.94v2.94c0,0.6-0.02,1-0.06,1.21
		c0,0.68-0.32,1.02-0.96,1.02h-2.42c-0.68-0.04-1.36-0.04-2.04,0c-1.02,0.13-2.3,0.04-3.83-0.26c-0.55-0.04-0.83-0.38-0.83-1.02
		c0-0.21,0.04-0.96,0.13-2.23v-1.53l0.06-1.47c0-0.89,0.04-1.89,0.13-3c0-1.66,0.09-3.08,0.26-4.28l0.19-2.42l0.06-1.85
		c0.08-0.77,0.15-1.38,0.19-1.85c0.04-1.74,0.15-3.19,0.32-4.34l0.19-1.66l0.13-1.59v-0.77l0.06-0.7c0-0.47,0.04-0.96,0.13-1.47
		l0.38-4.79c0.17-0.85,0.28-1.87,0.32-3.06c0.17-0.94,0.66-1.42,1.47-1.47c1.62-0.08,2.77-0.06,3.45,0.06l1.53,0.19l1.53,0.19
		l1.15,0.06c0.47,0.04,0.85,0.11,1.15,0.19c0.04,0,0.11,0.02,0.19,0.06h0.19l0.19,0.06c0.72,0.13,1.21,0.57,1.47,1.34l0.25,0.64
		l0.19,0.7c0.21,0.47,0.47,0.96,0.77,1.47l0.38,0.7l0.32,0.64c1.36,2.34,2.72,5.11,4.08,8.3l0.51,1.21l0.57,1.28
		c0.17,0.43,0.38,0.89,0.64,1.4l0.26,0.57l0.25,0.57c0.09,0.17,0.21,0.36,0.38,0.57c0.13-0.08,0.23-0.19,0.32-0.32l0.06-0.38
		l0.13-1.02V70.7c0.08-3.06,0.13-4.7,0.13-4.91l0.13-3.13l0.25-5.17c0.09-1.7,0.13-2.64,0.13-2.81c0.08-0.77,0.49-1.15,1.21-1.15
		l0.77,0.07c0.25,0.09,0.49,0.09,0.7,0l1.08-0.07l1.08-0.06l1.02-0.13c0.38-0.04,0.72-0.04,1.02,0c0.64,0.13,0.98,0.47,1.02,1.02
		c0.04,0.21,0.06,0.57,0.06,1.08c0.09,0.51,0.15,1.28,0.19,2.3l0.06,0.77v0.64c0,0.43,0.02,0.75,0.06,0.96l0.19,3.64l0.13,5.55v0.83
		c0,0.43,0.02,0.85,0.06,1.28v2.1l0.06,2.81v2.81c0,0.3,0.04,2.19,0.13,5.68l0.25,4.72l0.06,1.4v1.85l-0.06,0.32
		c-0.13,0.55-0.45,0.85-0.96,0.89l-3.77,0.51h-1.02l-1.02,0.06l-3.77,0.26h-0.06l-0.06,0.06c-1.15,0.04-1.91-0.38-2.3-1.28
		l-1.4-3.51l-1.4-3.51l-2.3-5.55l-0.89-1.91l-0.77-1.91c-0.68-1.74-1.25-3.02-1.72-3.83c-0.21-0.51-0.51-0.87-0.89-1.08L359.79,73.7
		z M388.25,81.74c-0.04-1.62-0.04-2.96,0-4.02l0.06-1.98l0.13-1.98l0.13-1.4l0.06-1.34c0-1.02,0.04-1.91,0.13-2.68
		c0.04-2.13,0.15-4,0.32-5.62c0-0.64,0.02-1.06,0.06-1.28c0-0.34,0.04-2.04,0.13-5.11c0-0.94,0.06-1.87,0.19-2.81
		c0.04-0.64,0.38-0.98,1.02-1.02c1.57-0.21,2.87-0.32,3.89-0.32l3-0.13c0.51,0,1.04,0.02,1.6,0.06c0.38,0,0.83,0.02,1.34,0.06
		c2.94,0.17,5.4,0.92,7.4,2.23c0.98,0.64,2.06,1.55,3.26,2.74l0.45,0.51l0.32,0.51c1.23,2.51,2.04,4.68,2.42,6.51
		c0.38,1.91,0.42,3.64,0.13,5.17l-0.51,3.77c-0.04,0.55-0.21,1.26-0.51,2.11l-0.32,1.08l-0.38,1.08l-0.32,1.02l-0.38,1.02
		c-0.77,1.96-1.72,3.81-2.87,5.55c-0.17,0.3-0.42,0.62-0.76,0.96l-0.83,0.83l-0.51,0.51l-0.45,0.57c-0.38,0.43-0.7,0.75-0.96,0.96
		l-2.36,2.11l-2.42,2.04c-0.3,0.3-0.77,0.55-1.4,0.77l-0.77,0.25l-0.76,0.26l-2.23,0.57l-2.23,0.64c-0.26,0.08-0.47,0.13-0.64,0.13
		H391l-0.89,0.06h-0.45c-0.72-0.09-1.15-0.45-1.28-1.09c-0.09-1.02-0.13-1.57-0.13-1.66V81.74z M398.21,66.36
		c0,0.21-0.04,1.64-0.13,4.28c0,0.98-0.02,1.62-0.06,1.91c-0.17,1.19-0.25,2.74-0.25,4.66v1.02c0,0.25-0.04,1.7-0.13,4.34
		c0,0.68,0.3,0.83,0.89,0.45l0.51-0.38l0.51-0.45l2.81-3.13c0.64-0.76,1.15-1.44,1.53-2.04c1.4-2.64,2.11-5.25,2.11-7.85
		c0-2.3-0.81-4.19-2.42-5.68c-0.94-0.94-2.45-1.51-4.53-1.72c-0.47-0.08-0.76,0.17-0.89,0.77v0.19c-0.09,0.09-0.09,0.17,0,0.25
		l0.06,1.6V66.36z M124.76,91l0.06-2.23v-2.23l0.13-0.83c0.17-0.68,0.61-0.96,1.34-0.83l3.06,0.57c0.89,0.21,1.7,0.26,2.42,0.13
		c0.55-0.17,1.4-0.15,2.55,0.06c1.57,0.25,3.06,0,4.47-0.77c0.72-0.34,1.11-0.85,1.15-1.53c0.04-0.08,0.02-0.38-0.06-0.89
		c-0.26-0.89-0.77-1.55-1.53-1.98c-0.81-0.51-1.51-0.85-2.11-1.02c-1.66-0.72-3.32-1.36-4.98-1.91l-1.4-0.51
		c-1.4-0.51-2.64-1.23-3.7-2.17c-1.79-1.66-2.91-3.74-3.38-6.25c-0.17-1.32-0.23-2.64-0.19-3.96c0.08-1.19,0.38-2.45,0.89-3.77
		c0.59-1.57,1.36-3,2.3-4.28c1.06-1.57,2.57-2.72,4.53-3.45l1.15-0.45l1.08-0.45c0.98-0.3,1.98-0.55,3-0.77
		c1.87-0.34,3.72-0.47,5.55-0.38c1.49,0.08,3,0.21,4.53,0.38l0.32,0.06l0.32,0.13c0.51,0.17,0.72,0.55,0.64,1.15l-0.19,1.21
		l-0.25,1.28l-0.89,4.34l-0.13,0.38c-0.21,0.64-0.62,0.92-1.21,0.83c-2.04-0.21-3.96-0.34-5.74-0.38c-1.66-0.09-3,0.23-4.02,0.96
		c-0.3,0.17-0.6,0.4-0.89,0.7c-0.34,0.55-0.49,1.04-0.45,1.47c0.26,1.36,0.96,2.34,2.11,2.94c1.28,0.68,2.57,1.28,3.89,1.79
		l1.08,0.51l2.93,1.28c1.57,0.72,3.28,1.85,5.11,3.38c0.98,0.68,1.74,1.77,2.3,3.26l0.7,1.79c0.3,0.72,0.47,1.32,0.51,1.79
		c0,0.09,0.02,0.15,0.06,0.19v0.13c0,2.77-0.38,5.04-1.15,6.83c-0.6,1.4-1.38,2.6-2.36,3.57l-0.77,0.76l-0.77,0.77
		c-0.55,0.51-1.15,0.94-1.79,1.28c-1.57,0.89-3.34,1.62-5.3,2.17c-1.4,0.42-3.04,0.64-4.91,0.64c-0.81-0.09-1.64-0.21-2.49-0.38
		c-0.6-0.21-1.45-0.4-2.55-0.57l-1.28-0.26l-1.28-0.32l-1.59-0.57c-0.55-0.25-0.83-0.68-0.83-1.28V91z"/>
	<path class="st6" d="M87.87,119.66c10.14-9.81,15.26-23.9,13.66-38c-0.51-4.47-5.22-13.01-5.22-13.01l-9.45-15.69L75.2,45.25
		c0,0-8.75-3.25-13.4-3.84c-5.38-0.68-10.93-0.41-16.39,0.9c-2.6,0.63-5.19,1.49-7.72,2.61c-11.46,5.04-24.1,24.99-24.1,24.99
		l-3.23,17.67c0,0,1.35,11.86,3.87,17.6c3.31,7.54,8.42,13.74,14.59,18.31c3.89,2.89,8.22,5.13,12.79,6.65L87.87,119.66z"/>
	<path class="st2" d="M45.46,42.31c-0.02,0-0.28-3.55-0.3-3.55c-0.19,0.05-0.39,0.04-0.59,0.02l0.59-0.02l6.72-1.3v-6.59H49.4
		l0.29-9.74L38.62,9.23l0.79-0.65L39.4,6.35l-2.25-1.47l-1.98,1.62l0.32,1.69l0.91,1.12L24.05,21.4v9.46h-2.88v6.59l7.09,1.74
		l-9.21,74.39c2.77,3.84,6.08,7.17,9.77,9.91c3.8,2.82,8,5.01,12.45,6.54l13.92,2.47c0.71,0.01,1.43,0.01,2.15-0.01L45.46,42.31z"/>
	<polygon class="st3" points="24.05,21.4 36.4,9.29 35.49,8.18 35.17,6.49 37.15,4.88 39.4,6.35 39.42,8.58 38.62,9.23 49.69,21.13 
		49.3,34.01 24.05,34.01 24.05,21.4 24.06,21.4 	"/>
	<polygon class="st2" points="47.55,33.09 26.08,33.09 28.28,21.13 45.9,21.79 	"/>
	<path class="st3" d="M24.73,66.86l23.62-2.6l2.69,20.42l-28.03-3.7L24.73,66.86z M52.32,94.39l-31.23,2.45l-2.44,16.21
		c2.85,4.07,6.3,7.58,10.17,10.45c4.28,3.17,9.07,5.56,14.14,7.08l11.96,1.92c0.81,0.02,1.61,0.02,2.42,0L52.32,94.39z M51.88,37.46
		l-6.72,1.3h0l1.43,12.1l-20.51,4.94l2.02-16.64l-6.93-1.7v-6.59h30.71V37.46z"/>
	<polygon class="st3" points="34.26,20.14 32.62,25.03 32.34,28.81 32.78,32.21 38.43,33.31 41.4,32.32 40.74,20.14 34.61,19.43 	
		"/>
	<polygon class="st4" points="24.99,27.95 47.91,27.67 47.93,28.67 25.01,28.95 	"/>
	<rect x="35.03" y="42.86" class="st0" width="1.78" height="3.29"/>
	<rect x="35.03" y="72.01" class="st0" width="1.78" height="3.29"/>
	<path class="st2" d="M74.48,128.64c5.11-2.24,9.6-5.32,13.39-8.98L86.55,88.8l-17.1-22.95l-0.9-0.07L45.9,84.01l-4.29,46.14
		C52,133.62,63.66,133.4,74.48,128.64"/>
	<path class="st5" d="M74.48,128.64c5.11-2.24,9.6-5.32,13.39-8.98L86.55,88.8l-17.1-22.95v-15.1h-0.9v15.02L45.9,84.01l-4.29,46.14
		C52,133.62,63.66,133.4,74.48,128.64"/>
	<path class="st0" d="M71.55,91.37h20.34l3.35-3.99l-1.56-3.63l-3.91-3.85h-2.12l-1.23,2.52L82.9,78h-2.96l-2.01,0.69
		c0,0-5.36,0.03-4.36,2.52l1,2.49l-7.6-3.08l-2.23,2.78l0.89,3.31l1.12,3.52L71.55,91.37z"/>
	<polygon class="st3" points="77.51,52.74 68.55,52.74 68.55,59.73 77.51,58.84 74.98,55.82 	"/>
	<polygon class="st2" points="65.36,101.17 71.73,101.17 71.73,110.21 65.36,111.37 	"/>
</g>
</svg>
